<!--?xml version="1.0" encoding="utf-8"?-->
<!-- Generator: Adobe Illustrator 18.1.1, SVG Export Plug-In . SVG Version: 6.00 Build 0)  -->

<svg version="1.1" id="_x32_" xmlns="http://www.w3.org/2000/svg" xmlns:xlink="http://www.w3.org/1999/xlink" x="0px" y="0px" viewBox="0 0 512 512" style="width: 32px; height: 32px; opacity: 1;" xml:space="preserve">
<style type="text/css">
	.st0{fill:#4B4B4B;}
</style>
<g>
	<path class="st0" d="M512,279.393l-11.253-11.244l-255.7-255.679L0,0.005l12.455,245.058l43.309,43.304
		c-6.242,28.963-9.197,55.272-9.197,78.142c0.032,31.211,5.016,56.308,13.731,74.588c4.383,9.139,9.741,16.641,16.321,22.134
		c6.528,5.492,14.6,8.87,23.066,8.85c8.041,0.01,15.916-2.985,22.859-8.093c6.995-5.129,13.284-12.342,19.067-21.585
		c8.394-13.522,13.875-30.869,17.73-50.464l120.068,120.057L512,279.393z M33.573,33.59l197.63,10.051l235.783,235.763
		L279.408,466.971L164.656,352.23c1.124-14.062,1.704-28.632,1.71-43.481c-0.01-36.475-3.098-74.121-7.999-106.721
		c-2.316-15.378-5.047-29.563-8.073-42.092c1.86-1.274,3.653-2.674,5.306-4.332c14.507-14.507,14.507-38.008,0-52.526
		c-14.508-14.507-38.009-14.507-52.516,0c-14.507,14.518-14.507,38.019,0,52.526c7.419,7.419,17.191,10.985,26.91,10.818
		c8.72,36.786,15.17,91.095,15.15,142.326c0,7.928-0.212,15.74-0.528,23.44L43.625,231.208L33.573,33.59z M139.984,380.498
		c-3.513,21.346-9.182,39.252-16.373,50.672c-4.705,7.544-9.45,12.684-13.596,15.688c-4.175,3.037-7.512,3.979-10.331,4
		c-2.953-0.031-5.906-1.005-9.482-3.938c-5.315-4.342-11.242-13.471-15.471-27.128c-4.258-13.638-6.952-31.626-6.943-53.283
		c-0.01-17.699,1.845-37.916,5.907-60.215l67.257,67.251C140.621,375.855,140.357,378.27,139.984,380.498z" style="fill: rgb(91, 75, 66);"></path>
</g>
</svg>
